<svg width="123" height="209" viewBox="0 0 123 209" fill="none" xmlns="http://www.w3.org/2000/svg">
<path d="M20.98 45.38C14.94 45.38 10 43.32 6.16 39.2C2.32 35.08 0.4 29.6 0.4 22.76C0.4 15.88 2.34 10.42 6.22 6.38C10.06 2.3 15 0.259998 21.04 0.259998C26.48 0.259998 30.9 1.7 34.3 4.58C37.7 7.5 39.68 11.46 40.24 16.46H29.32C28.96 14.22 28.08 12.5 26.68 11.3C25.32 10.1 23.54 9.5 21.34 9.5C18.26 9.5 15.86 10.66 14.14 12.98C12.46 15.3 11.62 18.54 11.62 22.7C11.62 27.02 12.46 30.36 14.14 32.72C15.86 35.04 18.26 36.2 21.34 36.2C25.98 36.2 28.64 33.7 29.32 28.7H40.24C39.84 33.94 37.92 38.02 34.48 40.94C30.96 43.9 26.46 45.38 20.98 45.38ZM85.9839 44H74.1639L71.7639 36.68H57.3639L54.9639 44H43.2039L58.8039 1.28H70.6239L85.9839 44ZM61.9839 22.64L60.0639 28.46H69.1239L67.2039 22.64L64.5639 13.7L61.9839 22.64ZM102.12 1.28V34.28H122.04V44H90.8997V1.28H102.12ZM36.58 64.5L15.1 89.4H37.24V99H0.64V90L21.7 65.88H2.08V56.28H36.58V64.5ZM54.8345 81.72V89.52H77.9945V99H43.6145V56.28H77.3945V65.58H54.8345V72.6H74.6345V81.72H54.8345ZM1.72 111.28H19.72C26.36 111.28 31.42 113.12 34.9 116.8C38.38 120.48 40.12 125.76 40.12 132.64C40.12 139.4 38.46 144.66 35.14 148.42C31.82 152.14 26.96 154 20.56 154H1.72V111.28ZM12.94 144.58H18.64C25.48 144.58 28.9 140.6 28.9 132.64C28.9 128.52 28.02 125.48 26.26 123.52C24.54 121.52 21.8 120.52 18.04 120.52H12.94V144.58ZM80.9969 149.2C77.0369 153.32 71.9569 155.38 65.7569 155.38C59.5169 155.38 54.4569 153.32 50.5769 149.2C46.6569 145.04 44.6969 139.54 44.6969 132.7C44.6969 125.9 46.6569 120.44 50.5769 116.32C54.4969 112.28 59.5569 110.26 65.7569 110.26C71.9969 110.26 77.0969 112.28 81.0569 116.32C84.9769 120.44 86.9369 125.9 86.9369 132.7C86.9369 139.54 84.9569 145.04 80.9969 149.2ZM58.5569 142.6C60.2769 145 62.6769 146.2 65.7569 146.2C68.8369 146.2 71.2769 145 73.0769 142.6C74.8369 140.16 75.7169 136.86 75.7169 132.7C75.7169 128.58 74.8169 125.34 73.0169 122.98C71.2569 120.62 68.8369 119.44 65.7569 119.44C62.6769 119.44 60.2569 120.62 58.4969 122.98C56.7769 125.3 55.9169 128.54 55.9169 132.7C55.9169 136.94 56.7969 140.24 58.5569 142.6ZM27.82 191.12V166.28H38.86V209H27.64L12.82 184.28V209H1.72V166.28H12.82L27.82 191.12ZM57.5884 209H46.3684V166.28H57.5884V209ZM105.32 209H93.4998L91.0998 201.68H76.6998L74.2998 209H62.5398L78.1398 166.28H89.9598L105.32 209ZM81.3198 187.64L79.3998 193.46H88.4598L86.5398 187.64L83.8998 178.7L81.3198 187.64Z" fill="black"/>
</svg>
