<svg width="32" height="37" viewBox="0 0 32 37" fill="none" xmlns="http://www.w3.org/2000/svg">
<path fill-rule="evenodd" clip-rule="evenodd" d="M13.9838 17.5416C14.0711 17.7109 14.0928 17.9278 14.1361 18.3614C14.2182 19.1823 14.2593 19.5927 14.4311 19.8179C14.649 20.1036 15.0034 20.2504 15.3595 20.2025C15.6402 20.1647 15.9594 19.9035 16.5979 19.3811C16.9352 19.1051 17.1038 18.9672 17.2853 18.9092C17.5158 18.8355 17.7652 18.848 17.9872 18.9442C18.162 19.0199 18.3161 19.174 18.6243 19.4822L19.5178 20.3757C19.8259 20.6839 19.98 20.8379 20.0558 21.0128C20.152 21.2348 20.1644 21.4841 20.0908 21.7146C20.0328 21.8961 19.8948 22.0648 19.6188 22.4021C19.0964 23.0406 18.8352 23.3598 18.7975 23.6406C18.7496 23.9966 18.8964 24.351 19.182 24.5689C19.4072 24.7407 19.8176 24.7818 20.6385 24.8639C21.0722 24.9072 21.2891 24.9289 21.4584 25.0162C21.6734 25.1272 21.841 25.3123 21.9299 25.5373C22 25.7145 22 25.9324 22 26.3682V27.6319C22 28.0676 22 28.2855 21.93 28.4626C21.841 28.6877 21.6734 28.8729 21.4583 28.9838C21.289 29.0711 21.0722 29.0928 20.6386 29.1361L20.6386 29.1361C19.818 29.2182 19.4077 29.2592 19.1825 29.4309C18.8967 29.6489 18.7499 30.0034 18.7979 30.3596C18.8357 30.6402 19.0968 30.9593 19.619 31.5976C19.8949 31.9348 20.0328 32.1034 20.0908 32.2848C20.1645 32.5154 20.152 32.7648 20.0558 32.9869C19.98 33.1617 19.826 33.3157 19.5179 33.6238L18.6243 34.5174C18.3162 34.8255 18.1621 34.9796 17.9873 35.0554C17.7652 35.1516 17.5159 35.164 17.2854 35.0904C17.1039 35.0324 16.9352 34.8944 16.5979 34.6184L16.5979 34.6184C15.9594 34.096 15.6402 33.8348 15.3595 33.7971C15.0034 33.7492 14.649 33.896 14.4311 34.1816C14.2593 34.4068 14.2183 34.8173 14.1362 35.6383C14.0928 36.0722 14.0711 36.2891 13.9837 36.4585C13.8728 36.6735 13.6877 36.8409 13.4628 36.9299C13.2856 37 13.0676 37 12.6316 37H11.3682C10.9324 37 10.7145 37 10.5373 36.9299C10.3123 36.841 10.1272 36.6734 10.0162 36.4584C9.92891 36.2891 9.90722 36.0722 9.86385 35.6385C9.78176 34.8176 9.74072 34.4072 9.56892 34.182C9.35101 33.8964 8.99663 33.7496 8.64057 33.7975C8.35985 33.8352 8.04059 34.0964 7.40208 34.6189L7.40206 34.6189C7.06473 34.8949 6.89607 35.0329 6.71458 35.0908C6.4841 35.1645 6.23474 35.152 6.01272 35.0558C5.8379 34.9801 5.6838 34.826 5.37561 34.5178L4.48217 33.6243C4.17398 33.3162 4.01988 33.1621 3.94414 32.9873C3.84794 32.7652 3.8355 32.5159 3.90913 32.2854C3.96711 32.1039 4.10511 31.9352 4.3811 31.5979C4.90351 30.9594 5.16471 30.6402 5.20247 30.3594C5.25037 30.0034 5.10357 29.649 4.81792 29.4311C4.59273 29.2593 4.1823 29.2182 3.36143 29.1361C2.92776 29.0928 2.71093 29.0711 2.54161 28.9838C2.32656 28.8728 2.15902 28.6877 2.07005 28.4627C2 28.2855 2 28.0676 2 27.6318V26.3683C2 25.9324 2 25.7144 2.07008 25.5372C2.15905 25.3123 2.32654 25.1272 2.54152 25.0163C2.71088 24.9289 2.92777 24.9072 3.36155 24.8638H3.36155H3.36156C4.18264 24.7817 4.59319 24.7407 4.81842 24.5688C5.10395 24.3509 5.2507 23.9966 5.20287 23.6407C5.16514 23.3599 4.90385 23.0405 4.38128 22.4018C4.10516 22.0643 3.96711 21.8956 3.90914 21.7141C3.83557 21.4836 3.848 21.2344 3.94413 21.0124C4.01988 20.8375 4.17403 20.6834 4.48233 20.3751L5.37565 19.4818L5.37566 19.4818C5.68385 19.1736 5.83795 19.0195 6.01277 18.9437C6.23478 18.8475 6.48414 18.8351 6.71463 18.9087C6.89612 18.9667 7.06481 19.1047 7.4022 19.3808C8.04061 19.9031 8.35982 20.1643 8.64044 20.2021C8.99661 20.25 9.35113 20.1032 9.56907 19.8174C9.74077 19.5923 9.78181 19.1819 9.86387 18.3613C9.90722 17.9278 9.9289 17.711 10.0162 17.5417C10.1271 17.3266 10.3123 17.159 10.5374 17.07C10.7145 17 10.9324 17 11.3681 17H12.6318C13.0676 17 13.2855 17 13.4627 17.07C13.6877 17.159 13.8728 17.3266 13.9838 17.5416ZM12 31C14.2091 31 16 29.2091 16 27C16 24.7909 14.2091 23 12 23C9.79086 23 8 24.7909 8 27C8 29.2091 9.79086 31 12 31Z" fill="#DDDDDD"/>
<path fill-rule="evenodd" clip-rule="evenodd" d="M23.9838 0.541611C24.0711 0.710929 24.0928 0.927766 24.1361 1.36144C24.2182 2.1823 24.2593 2.59274 24.4311 2.81793C24.649 3.10358 25.0034 3.25038 25.3595 3.20248C25.6402 3.16472 25.9594 2.90352 26.5979 2.38113C26.9352 2.10515 27.1038 1.96716 27.2853 1.90918C27.5158 1.83555 27.7652 1.84798 27.9872 1.94419C28.162 2.01994 28.3161 2.17402 28.6243 2.4822L29.5178 3.37567C29.8259 3.68385 29.98 3.83794 30.0558 4.01275C30.152 4.23478 30.1644 4.48415 30.0908 4.71464C30.0328 4.89612 29.8948 5.06478 29.6188 5.4021C29.0964 6.0406 28.8352 6.35984 28.7975 6.64056C28.7496 6.99662 28.8964 7.35102 29.182 7.56893C29.4072 7.74072 29.8176 7.78176 30.6385 7.86385C31.0722 7.90722 31.2891 7.92891 31.4584 8.01624C31.6734 8.12716 31.841 8.31228 31.9299 8.53729C32 8.71447 32 8.93239 32 9.36824V10.6319C32 11.0676 32 11.2855 31.93 11.4626C31.841 11.6877 31.6734 11.8729 31.4583 11.9838C31.289 12.0711 31.0722 12.0928 30.6386 12.1361L30.6386 12.1361C29.818 12.2182 29.4077 12.2592 29.1825 12.4309C28.8967 12.6489 28.7499 13.0034 28.7979 13.3596C28.8357 13.6402 29.0968 13.9593 29.619 14.5976C29.8949 14.9348 30.0328 15.1034 30.0908 15.2848C30.1645 15.5154 30.152 15.7648 30.0558 15.9869C29.98 16.1617 29.826 16.3157 29.5179 16.6238L28.6243 17.5174C28.3162 17.8255 28.1621 17.9796 27.9873 18.0554C27.7652 18.1516 27.5159 18.164 27.2854 18.0904C27.1039 18.0324 26.9352 17.8944 26.5979 17.6184L26.5979 17.6184C25.9594 17.096 25.6402 16.8348 25.3595 16.7971C25.0034 16.7492 24.649 16.896 24.4311 17.1816C24.2593 17.4068 24.2183 17.8173 24.1362 18.6383C24.0928 19.0722 24.0711 19.2891 23.9837 19.4585C23.8728 19.6735 23.6877 19.8409 23.4628 19.9299C23.2856 20 23.0676 20 22.6316 20H21.3682C20.9324 20 20.7145 20 20.5373 19.9299C20.3123 19.841 20.1272 19.6734 20.0162 19.4584C19.9289 19.2891 19.9072 19.0722 19.8639 18.6385C19.7818 17.8176 19.7407 17.4072 19.5689 17.182C19.351 16.8964 18.9966 16.7496 18.6406 16.7975C18.3599 16.8352 18.0406 17.0964 17.4021 17.6189L17.4021 17.6189C17.0647 17.8949 16.8961 18.0329 16.7146 18.0908C16.4841 18.1645 16.2347 18.152 16.0127 18.0558C15.8379 17.9801 15.6838 17.826 15.3756 17.5178L14.4822 16.6243C14.174 16.3162 14.0199 16.1621 13.9441 15.9873C13.8479 15.7652 13.8355 15.5159 13.9091 15.2854C13.9671 15.1039 14.1051 14.9352 14.3811 14.5979C14.9035 13.9594 15.1647 13.6402 15.2025 13.3594C15.2504 13.0034 15.1036 12.649 14.8179 12.4311C14.5927 12.2593 14.1823 12.2182 13.3614 12.1361C12.9278 12.0928 12.7109 12.0711 12.5416 11.9838C12.3266 11.8728 12.159 11.6877 12.07 11.4627C12 11.2855 12 11.0676 12 10.6318V9.36835C12 8.9324 12 8.71442 12.0701 8.53721C12.159 8.31226 12.3265 8.12719 12.5415 8.01628C12.7109 7.92891 12.9278 7.90722 13.3616 7.86384H13.3616H13.3616C14.1826 7.78173 14.5932 7.74068 14.8184 7.56881C15.104 7.35092 15.2507 6.99664 15.2029 6.64066C15.1651 6.35987 14.9039 6.04052 14.3813 5.40182C14.1052 5.06435 13.9671 4.89561 13.9091 4.71405C13.8356 4.48364 13.848 4.23438 13.9441 4.01243C14.0199 3.83754 14.174 3.68339 14.4823 3.37509L15.3757 2.48177L15.3757 2.48177C15.6839 2.17357 15.8379 2.01947 16.0128 1.94373C16.2348 1.84753 16.4841 1.8351 16.7146 1.90872C16.8961 1.9667 17.0648 2.10472 17.4022 2.38076C18.0406 2.9031 18.3598 3.16427 18.6404 3.20207C18.9966 3.25003 19.3511 3.10319 19.5691 2.81742C19.7408 2.59227 19.7818 2.18195 19.8639 1.36131C19.9072 0.927757 19.9289 0.710983 20.0162 0.541704C20.1271 0.326575 20.3123 0.158981 20.5374 0.0700092C20.7145 0 20.9324 0 21.3681 0H22.6318C23.0676 0 23.2855 0 23.4627 0.0700478C23.6877 0.159016 23.8728 0.326558 23.9838 0.541611ZM22 14C24.2091 14 26 12.2091 26 10C26 7.79086 24.2091 6 22 6C19.7909 6 18 7.79086 18 10C18 12.2091 19.7909 14 22 14Z" fill="#DDDDDD"/>
</svg>
