<svg width="20" height="20" viewBox="0 0 20 20" fill="none" xmlns="http://www.w3.org/2000/svg">
<rect x="2.5" y="5" width="15" height="12.5" rx="2" stroke="#DDDDDD"/>
<path d="M2.5 8.33333C2.5 7.08718 2.5 6.4641 2.76795 6C2.94349 5.69596 3.19596 5.44349 3.5 5.26795C3.9641 5 4.58718 5 5.83333 5H14.1667C15.4128 5 16.0359 5 16.5 5.26795C16.804 5.44349 17.0565 5.69596 17.2321 6C17.5 6.4641 17.5 7.08718 17.5 8.33333H2.5Z" fill="#DDDDDD"/>
<path d="M5.83325 2.5L5.83325 5" stroke="#DDDDDD" stroke-linecap="round"/>
<path d="M14.1667 2.5L14.1667 5" stroke="#DDDDDD" stroke-linecap="round"/>
<rect x="5.83325" y="10" width="3.33333" height="1.66667" rx="0.5" fill="#DDDDDD"/>
<rect x="5.83325" y="13.3333" width="3.33333" height="1.66667" rx="0.5" fill="#DDDDDD"/>
<rect x="10.8333" y="10" width="3.33333" height="1.66667" rx="0.5" fill="#DDDDDD"/>
<rect x="10.8333" y="13.3333" width="3.33333" height="1.66667" rx="0.5" fill="#DDDDDD"/>
</svg>
