<svg width="18" height="18" viewBox="0 0 18 18" fill="none" xmlns="http://www.w3.org/2000/svg">
<path d="M17.5798 5.18386L10.1798 8.42136C10.0706 8.46913 10 8.57702 10 8.69621V17.5413C10 17.7576 10.222 17.9029 10.4202 17.8161L17.8202 14.5786C17.9294 14.5309 18 14.423 18 14.3038V5.4587C18 5.24236 17.778 5.09714 17.5798 5.18386Z" fill="#6993FF"/>
<path d="M8.31423 8.4235L0.414225 5.17056C0.216773 5.08926 0 5.23443 0 5.44797V14.2991C0 14.4207 0.0733646 14.5302 0.185775 14.5765L8.08578 17.8294C8.28323 17.9107 8.5 17.7656 8.5 17.552V8.70091C8.5 8.57934 8.42664 8.46979 8.31423 8.4235Z" fill="#6993FF"/>
<path d="M8.86584 0.0670819L1.57289 3.71355C1.34539 3.8273 1.35378 4.15478 1.58681 4.25673L8.87975 7.44739C8.95641 7.48093 9.04359 7.48093 9.12025 7.44739L16.4132 4.25673C16.6462 4.15478 16.6546 3.8273 16.4271 3.71355L9.13416 0.067082C9.04971 0.0248529 8.95029 0.0248528 8.86584 0.0670819Z" fill="#323F68"/>
</svg>
