<svg width="14" height="14" viewBox="0 0 14 14" fill="none" xmlns="http://www.w3.org/2000/svg">
<path d="M1.16675 7.00004L0.776314 6.68769L0.526436 7.00004L0.776314 7.31239L1.16675 7.00004ZM6.41675 7.50004C6.69289 7.50004 6.91675 7.27618 6.91675 7.00004C6.91675 6.7239 6.69289 6.50004 6.41675 6.50004V7.50004ZM3.10965 3.77103L0.776314 6.68769L1.55718 7.31239L3.89052 4.39572L3.10965 3.77103ZM0.776314 7.31239L3.10965 10.2291L3.89052 9.60436L1.55718 6.68769L0.776314 7.31239ZM1.16675 7.50004H6.41675V6.50004H1.16675V7.50004Z" fill="#828282"/>
<path d="M8.09688 12.0439L8.01468 12.5371L8.09688 12.0439ZM6.33114 11.5121L5.9971 11.8841L6.33114 11.5121ZM6.06755 11.2009L6.48945 10.9326L6.06755 11.2009ZM9.34006 12.2511L9.25786 12.7443L9.34006 12.2511ZM12.3028 12.2071L12.626 12.5886L12.3028 12.2071ZM9.34006 1.74883L9.25786 1.25563L9.34006 1.74883ZM12.3028 1.79279L11.9796 2.1743L12.3028 1.79279ZM6.26197 2.55406L5.90487 2.20408L6.26197 2.55406ZM6.12149 2.71988L5.71757 2.42518L6.12149 2.71988ZM8.29295 2.43024L9.42225 2.24202L9.25786 1.25563L8.12855 1.44385L8.29295 2.43024ZM12.3333 4.70801V9.29191H13.3333V4.70801H12.3333ZM9.42225 11.7579L8.17908 11.5507L8.01468 12.5371L9.25786 12.7443L9.42225 11.7579ZM8.17908 11.5507C7.68871 11.469 7.35775 11.4132 7.10704 11.3449C6.86566 11.2792 6.74715 11.2136 6.66518 11.14L5.9971 11.8841C6.24 12.1022 6.52406 12.2225 6.84419 12.3097C7.15499 12.3944 7.54446 12.4587 8.01468 12.5371L8.17908 11.5507ZM5.33325 9.37177C5.33325 9.84848 5.33266 10.2432 5.36508 10.5637C5.39847 10.8938 5.47047 11.1938 5.64565 11.4692L6.48945 10.9326C6.43033 10.8396 6.38518 10.712 6.36 10.4631C6.33385 10.2045 6.33325 9.8689 6.33325 9.37177H5.33325ZM6.66518 11.14C6.59743 11.0792 6.53831 11.0094 6.48945 10.9326L5.64565 11.4692C5.74337 11.6229 5.86161 11.7625 5.9971 11.8841L6.66518 11.14ZM12.3333 9.29191C12.3333 10.1291 12.3321 10.7034 12.2719 11.1272C12.2137 11.5372 12.1116 11.7138 11.9796 11.8256L12.626 12.5886C13.0245 12.2511 13.1876 11.7921 13.262 11.2677C13.3344 10.7572 13.3333 10.0986 13.3333 9.29191H12.3333ZM9.25786 12.7443C10.0536 12.8769 10.703 12.9864 11.2185 12.9988C11.748 13.0116 12.2275 12.9262 12.626 12.5886L11.9796 11.8256C11.8477 11.9374 11.6566 12.0091 11.2427 11.9991C10.8148 11.9888 10.2481 11.8955 9.42225 11.7579L9.25786 12.7443ZM9.42225 2.24202C10.2481 2.10438 10.8148 2.01115 11.2427 2.00081C11.6566 1.99081 11.8477 2.06251 11.9796 2.1743L12.626 1.41128C12.2275 1.07371 11.748 0.988308 11.2185 1.0011C10.703 1.01355 10.0536 1.12301 9.25786 1.25563L9.42225 2.24202ZM13.3333 4.70801C13.3333 3.90133 13.3344 3.24268 13.262 2.73217C13.1876 2.20782 13.0245 1.74884 12.626 1.41128L11.9796 2.1743C12.1116 2.28608 12.2137 2.46275 12.2719 2.8727C12.3321 3.29648 12.3333 3.87077 12.3333 4.70801H13.3333ZM8.12855 1.44385C7.60433 1.53122 7.17015 1.60283 6.82637 1.70057C6.4715 1.80146 6.16015 1.94361 5.90487 2.20408L6.61906 2.90403C6.70608 2.81524 6.83363 2.73813 7.09983 2.66245C7.37712 2.58362 7.74618 2.52137 8.29295 2.43024L8.12855 1.44385ZM6.33325 4.74359C6.33325 4.18928 6.33399 3.815 6.36616 3.52852C6.39704 3.25351 6.45214 3.11501 6.52541 3.01458L5.71757 2.42518C5.50261 2.71981 5.41358 3.05029 5.37241 3.41692C5.33252 3.77209 5.33325 4.21214 5.33325 4.74359H6.33325ZM5.90487 2.20408C5.83717 2.27316 5.77458 2.34705 5.71757 2.42518L6.52541 3.01458C6.55391 2.97552 6.58521 2.93857 6.61906 2.90403L5.90487 2.20408Z" fill="#828282"/>
</svg>
