<svg width="16" height="16" viewBox="0 0 16 16" fill="none" xmlns="http://www.w3.org/2000/svg">
<path d="M14.1381 2.98637C14.7155 3.56378 14.725 4.49698 14.1594 5.08597L8.74252 10.7271C8.46722 11.0137 8.08941 11.1795 7.69204 11.1878L5.41671 11.2355L5.46477 8.94497C5.47292 8.55664 5.63138 8.1866 5.90682 7.91274L11.4438 2.40735C12.0301 1.82442 12.9775 1.82578 13.5621 2.41038L14.1381 2.98637Z" fill="#3699FF"/>
<path opacity="0.3" d="M8.60001 1.33325C8.9682 1.33325 9.26668 1.63173 9.26668 1.99992C9.26668 2.36811 8.9682 2.66659 8.60001 2.66659H4.00001C3.26363 2.66659 2.66668 3.26354 2.66668 3.99992V11.9999C2.66668 12.7363 3.26363 13.3333 4.00001 13.3333H12C12.7364 13.3333 13.3333 12.7363 13.3333 11.9999V8.66659C13.3333 8.2984 13.6318 7.99992 14 7.99992C14.3682 7.99992 14.6667 8.2984 14.6667 8.66659V11.9999C14.6667 13.4727 13.4728 14.6666 12 14.6666H4.00001C2.52725 14.6666 1.33334 13.4727 1.33334 11.9999V3.99992C1.33334 2.52716 2.52725 1.33325 4.00001 1.33325H8.60001Z" fill="#3699FF"/>
</svg>
