<svg width="25" height="30" viewBox="0 0 25 30" fill="none" xmlns="http://www.w3.org/2000/svg">
<path d="M0 8C0 6.11438 0 5.17157 0.585786 4.58579C1.17157 4 2.11438 4 4 4H21C22.8856 4 23.8284 4 24.4142 4.58579C25 5.17157 25 6.11438 25 8V11C25 11.4714 25 11.7071 24.8536 11.8536C24.7071 12 24.4714 12 24 12H1C0.528596 12 0.292893 12 0.146447 11.8536C0 11.7071 0 11.4714 0 11V8Z" fill="#2F80ED"/>
<path d="M0 26C0 27.8856 0 28.8284 0.585786 29.4142C1.17157 30 2.11438 30 4 30H21C22.8856 30 23.8284 30 24.4142 29.4142C25 28.8284 25 27.8856 25 26V16C25 15.5286 25 15.2929 24.8536 15.1464C24.7071 15 24.4714 15 24 15H1C0.528596 15 0.292893 15 0.146447 15.1464C0 15.2929 0 15.5286 0 16V26Z" fill="#2F80ED"/>
<path d="M7 1L7 6" stroke="#2F80ED" stroke-width="2" stroke-linecap="round"/>
<path d="M19 1L19 6" stroke="#2F80ED" stroke-width="2" stroke-linecap="round"/>
</svg>
